# xmcd
#
# Track frame offsets: 
#        182
#        14550
#        25725
#        44707
#        56665
#        72475
#        93957
#        109872
#        127777
#        138732
#        155112
#
# Disc length: 2308 seconds
#
# Revision: 7
# Processed by: cddbd v1.5.2PL0 Copyright (c) Steve Scherf et al.
# Submitted via: ExactAudioCopy v1.1
#
DISCID=9e09020b
DTITLE=Doug Supernaw - You Still Got Me
DYEAR=1995
DGENRE=Country
TTITLE0=Not Enough Hours In The Night
TTITLE1=She Never Looks Back
TTITLE2=You Still Got Me
TTITLE3=Country Conscience
TTITLE4=Daddy Made The Dollars (Mamma Made The Sense)
TTITLE5=Roots And Wings
TTITLE6=We're All Here
TTITLE7=A Fire In The Rain
TTITLE8=Time Off From Good Behavior
TTITLE9=The Note
TTITLE10=What In The World
EXTD=
EXTT0=
EXTT1=
EXTT2=
EXTT3=
EXTT4=
EXTT5=
EXTT6=
EXTT7=
EXTT8=
EXTT9=
EXTT10=
PLAYORDER=
